<svg width="28" height="28" viewBox="0 0 28 28" fill="none" xmlns="http://www.w3.org/2000/svg">
<path d="M27.9794 2.12077C27.9462 1.57464 27.7143 1.05953 27.3274 0.67264C26.9405 0.285751 26.4254 0.0538325 25.8792 0.0206435C24.1179 -0.084363 19.6166 0.0766468 15.8812 3.81068L15.2162 4.48412H7.04946C6.75415 4.48246 6.46146 4.53953 6.18841 4.65202C5.91536 4.76451 5.6674 4.93017 5.45896 5.13936L0.656661 9.94446C0.362149 10.2388 0.155489 10.6093 0.0598717 11.0146C-0.0357453 11.4198 -0.0165345 11.8437 0.115348 12.2386C0.247231 12.6335 0.486566 12.9839 0.806494 13.2503C1.12642 13.5168 1.51428 13.6888 1.92654 13.7471L7.31267 14.4989L13.5025 20.6887L14.2543 26.0777C14.3121 26.4899 14.4841 26.8778 14.7508 27.1975C15.0175 27.5172 15.3683 27.7558 15.7636 27.8866C15.9938 27.9635 16.2349 28.0027 16.4776 28.0028C16.7715 28.0033 17.0626 27.9457 17.3342 27.8333C17.6057 27.7208 17.8523 27.5557 18.0597 27.3475L22.8648 22.5452C23.074 22.3368 23.2397 22.0888 23.3522 21.8158C23.4647 21.5427 23.5217 21.2501 23.5201 20.9547V12.788L24.1879 12.1202C27.9234 8.38476 28.0844 3.88348 27.9794 2.12077ZM7.04946 6.72426H12.976L7.44148 12.2574L2.23876 11.5322L7.04946 6.72426ZM17.4675 5.40118C18.5438 4.31826 19.8388 3.47747 21.2659 2.93495C22.6931 2.39243 24.2196 2.16069 25.7434 2.25518C25.8416 3.77985 25.6122 5.30786 25.0708 6.73653C24.5294 8.1652 23.6884 9.46143 22.6044 10.5381L14.5595 18.5802L9.424 13.4447L17.4675 5.40118ZM21.2799 20.9547L16.4734 25.7654L15.7468 20.5613L21.2799 15.0282V20.9547ZM10.8969 22.2848C10.2669 23.6653 8.15973 26.8855 2.23876 26.8855C1.9417 26.8855 1.6568 26.7675 1.44675 26.5575C1.2367 26.3474 1.11869 26.0625 1.11869 25.7654C1.11869 19.8445 4.33889 17.7373 5.71938 17.1059C5.85323 17.0449 5.99779 17.0108 6.14481 17.0056C6.29184 17.0004 6.43844 17.0243 6.57625 17.0758C6.71406 17.1272 6.84038 17.2054 6.948 17.3057C7.05562 17.406 7.14242 17.5265 7.20347 17.6603C7.26451 17.7942 7.29859 17.9388 7.30376 18.0858C7.30894 18.2328 7.2851 18.3794 7.23362 18.5172C7.18213 18.655 7.10401 18.7813 7.00371 18.889C6.9034 18.9966 6.78288 19.0834 6.64903 19.1444C5.74878 19.5547 3.76205 20.8749 3.41203 24.5922C7.12926 24.2421 8.45234 22.2554 8.85977 21.3552C8.92081 21.2213 9.00762 21.1008 9.11524 21.0005C9.22286 20.9002 9.34918 20.8221 9.48699 20.7706C9.6248 20.7191 9.7714 20.6953 9.91842 20.7004C10.0654 20.7056 10.21 20.7397 10.3439 20.8007C10.4777 20.8618 10.5982 20.9486 10.6985 21.0562C10.7988 21.1638 10.877 21.2901 10.9284 21.428C10.9799 21.5658 11.0038 21.7124 10.9986 21.8594C10.9934 22.0064 10.9593 22.151 10.8983 22.2848H10.8969Z" fill="#015FFE"/>
</svg>
